:FULLY-SPECIFIED
:FORCE-ALL-JOINTS-BE-3DOF
:DEGREES
612
root -4.21581 15.7489 -40.4831 356.522 -74.1774 369.801
lfemur -6.53674 12.8014 -15.7633
ltibia 42.768 0 0
lfoot -21.6 29.4149 0
ltoes -24.0493 0 0
rfemur -43.6045 -28.5299 16.3228
rtibia 67.4909 0 0
rfoot -14.192 -15.0652 0
rtoes -6.9363 0 0
lowerback 11.4786 4.94912 -6.68732
upperback -2.48321 5.4886 -1.22985
thorax -9.65211 2.96608 1.32279
lowerneck 1.83276 -10.9452 -12.0587
upperneck -0.807153 -14.9039 11.6461
head 1.2517 -7.49762 5.08351
lclavicle -4.04699e-14 8.12427e-16 0
lhumerus -71.8268 -24.7373 106.042
lradius 102.505 0 0
lwrist 56.1476 0 0
lhand 4.29419 53.4018 0
lfingers 7.12502 0 0
lthumb 32.3265 82.4109 0
rclavicle 7.42133e-15 1.06019e-15 0
rhumerus 24.2573 25.0693 -47.8068
rradius 99.0797 0 0
rwrist -27.8292 0 0
rhand -19.209 -30.8897 0
rfingers 7.12502 0 0
rthumb 11.7687 -61.874 0
613
root -4.20479 15.7362 -40.4525 356.531 -74.5146 370.025
lfemur -6.68843 12.8801 -15.8844
ltibia 43.0524 0 0
lfoot -21.6964 29.6626 0
ltoes -24.1456 0 0
rfemur -43.0891 -28.9764 16.7274
rtibia 68.2525 0 0
rfoot -14.7951 -15.9906 0
rtoes -7.2744 0 0
lowerback 11.2036 4.95788 -6.76689
upperback -2.60352 5.50125 -1.29482
thorax -9.62795 2.97741 1.30997
lowerneck 1.68853 -10.8974 -12.0761
upperneck -0.728978 -14.8313 11.6752
head 1.29304 -7.45737 5.08742
lclavicle -4.6131e-14 1.10628e-15 0
lhumerus -71.8616 -24.7031 106.064
lradius 102.511 0 0
lwrist 56.1552 0 0
lhand 3.3544 52.7945 0
lfingers 7.12502 0 0
lthumb 31.3011 81.8316 0
rclavicle 9.33381e-15 1.86196e-15 0
rhumerus 24.7746 23.5113 -47.8364
rradius 98.0334 0 0
rwrist -28.4443 0 0
rhand -19.6541 -30.9611 0
rfingers 7.12502 0 0
rthumb 10.4956 -62.3099 0
614
root -4.19727 15.7243 -40.4217 356.954 -74.8976 369.829
lfemur -6.84012 12.9588 -16.0055
ltibia 43.3368 0 0
lfoot -21.7927 29.9104 0
ltoes -24.2419 0 0
rfemur -42.5737 -29.4228 17.132
rtibia 69.0141 0 0
rfoot -15.3983 -16.916 0
rtoes -7.6125 0 0
lowerback 10.9203 4.95912 -6.70357
upperback -2.71428 5.52852 -1.34016
thorax -9.576 2.98824 1.23842
lowerneck 1.54875 -10.8305 -12.0285
upperneck -0.703729 -14.7294 11.7148
head 1.31078 -7.40303 5.08919
lclavicle -5.1792e-14 1.40014e-15 0
lhumerus -71.8964 -24.6688 106.086
lradius 102.516 0 0
lwrist 56.1628 0 0
lhand 2.41461 52.1871 0
lfingers 7.12502 0 0
lthumb 30.2756 81.2522 0
rclavicle 1.12463e-14 2.66372e-15 0
rhumerus 25.2919 21.9533 -47.866
rradius 96.9871 0 0
rwrist -29.0593 0 0
rhand -20.0993 -31.0324 0
rfingers 7.12502 0 0
rthumb 9.22242 -62.7458 0
615
root -4.19428 15.712 -40.389 356.935 -75.2845 370.058
lfemur -6.99181 13.0375 -16.1266
ltibia 43.6212 0 0
lfoot -21.8891 30.1582 0
ltoes -24.3383 0 0
rfemur -42.0582 -29.8692 17.5366
rtibia 69.7758 0 0
rfoot -16.0014 -17.8414 0
rtoes -7.9506 0 0
lowerback 10.6208 4.94859 -6.60552
upperback -2.7857 5.53798 -1.47669
thorax -9.45602 2.9832 1.05892
lowerneck 1.37787 -10.7473 -11.9069
upperneck -0.668155 -14.6023 11.7377
head 1.32697 -7.33533 5.0749
lclavicle -5.74531e-14 1.69399e-15 0
lhumerus -71.9312 -24.6345 106.107
lradius 102.522 0 0
lwrist 56.1704 0 0
lhand 1.47482 51.5798 0
lfingers 7.12502 0 0
lthumb 29.2502 80.6729 0
rclavicle 1.31588e-14 3.46549e-15 0
rhumerus 25.8092 20.3953 -47.8956
rradius 95.9408 0 0
rwrist -29.6743 0 0
rhand -20.5444 -31.1038 0
rfingers 7.12502 0 0
rthumb 7.94928 -63.1817 0
616
root -4.19404 15.6951 -40.3571 357.301 -75.7136 369.916
lfemur -7.1435 13.1162 -16.2477
ltibia 43.9056 0 0
lfoot -21.9854 30.406 0
ltoes -24.4346 0 0
rfemur -41.5428 -30.3157 17.9413
rtibia 70.5374 0 0
rfoot -16.6045 -18.7667 0
rtoes -8.2887 0 0
lowerback 10.3128 4.98507 -6.69108
upperback -2.87916 5.60538 -1.40172
thorax -9.40235 3.02593 1.1922
lowerneck 1.21875 -10.6936 -11.8647
upperneck -0.652777 -14.5121 11.6607
head 1.3375 -7.28534 5.04183
lclavicle -6.31141e-14 1.98785e-15 0
lhumerus -71.966 -24.6003 106.129
lradius 102.527 0 0
lwrist 56.178 0 0
lhand 0.535034 50.9724 0
lfingers 7.12502 0 0
lthumb 28.2247 80.0936 0
rclavicle 1.50712e-14 4.26725e-15 0
rhumerus 26.3265 18.8373 -47.9252
rradius 94.8945 0 0
rwrist -30.2894 0 0
rhand -20.9895 -31.1752 0
rfingers 7.12502 0 0
rthumb 6.67614 -63.6176 0
617
root -4.19795 15.6825 -40.3266 357.529 -76.0978 369.917
lfemur -7.29519 13.195 -16.3689
ltibia 44.19 0 0
lfoot -22.0818 30.6538 0
ltoes -24.5309 0 0
rfemur -41.0274 -30.7621 18.3459
rtibia 71.299 0 0
rfoot -17.2077 -19.6921 0
rtoes -8.6268 0 0
lowerback 9.99877 4.97556 -6.77873
upperback -2.95664 5.60866 -1.36181
thorax -9.31875 3.03573 1.30412
lowerneck 0.889589 -10.7101 -11.8419
upperneck -0.436939 -14.5172 11.6988
head 1.45608 -7.27783 5.02244
lclavicle -5.89158e-14 2.0334e-15 0
lhumerus -72.0008 -24.566 106.15
lradius 102.533 0 0
lwrist 56.1856 0 0
lhand -0.404755 50.3651 0
lfingers 7.12502 0 0
lthumb 27.1993 79.5143 0
rclavicle 1.69837e-14 5.06902e-15 0
rhumerus 26.8439 17.2793 -47.9548
rradius 93.8482 0 0
rwrist -30.9044 0 0
rhand -21.4346 -31.2465 0
rfingers 7.12502 0 0
rthumb 5.403 -64.0535 0
618
root -4.20731 15.6701 -40.2972 357.751 -76.5503 369.895
lfemur -7.44688 13.2737 -16.49
ltibia 44.4744 0 0
lfoot -22.1781 30.9015 0
ltoes -24.6273 0 0
rfemur -40.5119 -31.2085 18.7505
rtibia 72.0606 0 0
rfoot -17.8108 -20.6175 0
rtoes -8.9649 0 0
lowerback 9.6788 4.99421 -6.8081
upperback -3.02658 5.65837 -1.3254
thorax -9.22058 3.06421 1.37236
lowerneck 0.976048 -10.5158 -11.7402
upperneck -0.673557 -14.2439 11.5936
head 1.32543 -7.14479 5.00723
lclavicle -5.47175e-14 2.07896e-15 0
lhumerus -72.0357 -24.5318 106.172
lradius 102.538 0 0
lwrist 56.1932 0 0
lhand -1.34454 49.7577 0
lfingers 7.12502 0 0
lthumb 26.1738 78.9349 0
rclavicle 1.88962e-14 5.87079e-15 0
rhumerus 27.3612 15.7213 -47.9844
rradius 92.8019 0 0
rwrist -31.5194 0 0
rhand -21.8798 -31.3179 0
rfingers 7.12502 0 0
rthumb 4.12986 -64.4894 0
619
root -4.22255 15.6629 -40.2688 358.169 -77.0191 369.643
lfemur -7.59857 13.3524 -16.6111
ltibia 46.4726 0 0
lfoot -22.2745 31.1493 0
ltoes -24.7236 0 0
rfemur -39.9965 -31.655 19.1551
rtibia 72.8222 0 0
rfoot -18.4139 -21.5429 0
rtoes -9.303 0 0
lowerback 9.38828 5.00007 -6.73781
upperback -3.08294 5.69981 -1.3125
thorax -9.11019 3.0818 1.36162
lowerneck 0.814393 -10.4224 -11.6251
upperneck -0.626413 -14.1036 11.5468
head 1.3376 -7.07026 4.97457
lclavicle -5.05192e-14 2.12451e-15 0
lhumerus -72.0705 -24.4975 106.194
lradius 102.544 0 0
lwrist 56.2008 0 0
lhand -2.28433 49.1504 0
lfingers 7.12502 0 0
lthumb 25.1484 78.3556 0
rclavicle 2.08086e-14 6.67255e-15 0
rhumerus 27.8785 14.1633 -48.014
rradius 91.7556 0 0
rwrist -32.1345 0 0
rhand -22.3249 -31.3893 0
rfingers 7.12502 0 0
rthumb 2.85672 -64.9254 0
620
root -4.24165 15.6579 -40.2431 358.775 -77.4849 369.236
lfemur -7.75026 13.4311 -16.7322
ltibia 48.4708 0 0
lfoot -22.3708 31.3971 0
ltoes -24.8199 0 0
rfemur -39.4811 -32.1014 19.5598
rtibia 73.5839 0 0
rfoot -19.0171 -22.4683 0
rtoes -9.6411 0 0
lowerback 9.07907 5.0309 -6.65502
upperback -3.15378 5.77704 -1.29696
thorax -9.00664 3.11662 1.34111
lowerneck 0.667942 -10.3535 -11.4894
upperneck -0.564485 -13.9997 11.5235
head 1.35644 -7.01445 4.94404
lclavicle -4.6321e-14 2.17007e-15 0
lhumerus -72.1053 -24.4632 106.215
lradius 102.549 0 0
lwrist 52.6189 0 0
lhand -3.22412 48.543 0
lfingers 7.12502 0 0
lthumb 24.1229 77.7763 0
rclavicle 2.27211e-14 7.47432e-15 0
rhumerus 28.1326 14.1958 -47.7837
rradius 90.7093 0 0
rwrist -32.7495 0 0
rhand -22.77 -31.4607 0
rfingers 7.12502 0 0
rthumb 1.58358 -65.3613 0
621
root -4.26529 15.6549 -40.221 358.969 -77.9093 369.245
lfemur -7.90195 13.5098 -16.8533
ltibia 50.469 0 0
lfoot -21.904 30.6982 0
ltoes -24.9163 0 0
rfemur -38.9656 -32.5479 19.9644
rtibia 74.3455 0 0
rfoot -19.6202 -23.3937 0
rtoes -9.9792 0 0
lowerback 8.81373 5.05014 -6.66288
upperback -3.22459 5.81965 -1.31409
thorax -8.93229 3.13839 1.33848
lowerneck 0.551915 -10.2828 -11.4844
upperneck -0.529788 -13.9005 11.6647
head 1.38452 -6.96212 4.98309
lclavicle -4.21227e-14 2.21562e-15 0
lhumerus -72.1401 -24.429 106.237
lradius 102.555 0 0
lwrist 49.037 0 0
lhand -4.16391 47.9357 0
lfingers 7.12502 0 0
lthumb 23.0975 77.1969 0
rclavicle 2.46336e-14 8.27608e-15 0
rhumerus 28.3867 14.2284 -47.5535
rradius 89.6629 0 0
rwrist -33.3645 0 0
rhand -23.2152 -31.532 0
rfingers 7.12502 0 0
rthumb 0.310435 -65.7972 0
622
root -4.29149 15.6517 -40.1999 359.155 -78.363 369.252
lfemur -8.05364 13.5885 -16.9744
ltibia 52.4672 0 0
lfoot -21.4373 29.9992 0
ltoes -25.0126 0 0
rfemur -38.4502 -32.9943 20.369
rtibia 75.1071 0 0
rfoot -20.2233 -24.319 0
rtoes -10.3173 0 0
lowerback 8.70564 5.03254 -6.79002
upperback -3.39991 5.78656 -1.2648
thorax -9.07875 3.13707 1.46418
lowerneck 0.439681 -10.1511 -11.4054
upperneck -0.346913 -13.7233 11.5962
head 1.42565 -6.86978 4.95057
lclavicle -3.79244e-14 2.26118e-15 0
lhumerus -72.1749 -24.3947 106.258
lradius 102.56 0 0
lwrist 45.4551 0 0
lhand -5.1037 47.3283 0
lfingers 7.12502 0 0
lthumb 22.072 76.6176 0
rclavicle 2.65461e-14 9.07785e-15 0
rhumerus 28.6408 14.2609 -47.3232
rradius 88.6166 0 0
rwrist -33.9796 0 0
rhand -23.6603 -31.6034 0
rfingers 7.12502 0 0
rthumb -0.962706 -66.2331 0
